<svg xmlns="http://www.w3.org/2000/svg" width="1500" height="960" viewBox="0 0 1500 960">
  <defs>
    <style>

      text { font-family: 'Comic Sans MS', 'Segoe Print', cursive; fill: #000; stroke: #000; stroke-width: 0.4px; paint-order: stroke fill; }
    </style>
    <filter id="sk" x="-10%" y="-30%" width="120%" height="160%"><feTurbulence type="fractalNoise" baseFrequency="0.018" numOctaves="2" seed="3" result="n"/><feDisplacementMap in="SourceGraphic" in2="n" scale="2"/></filter>
    <marker id="bk" markerWidth="8" markerHeight="8" refX="6" refY="4" orient="auto">
      <path d="M0,0 L7,4 L0,8 Z" fill="#000"/>
    </marker>
  </defs>

  <!-- ===================== LEFT: per-value scalar ===================== -->
  <text x="360" y="50" text-anchor="middle" font-size="28" fill="#000">Before: per-value scalar loop</text>

  <rect filter="url(#sk)" x="20" y="70" width="690" height="600" rx="18" fill="#fde6cf" stroke="#d6a44a" stroke-width="2.5" stroke-dasharray="8 6"/>
  <text x="55" y="115" font-size="28" fill="#9a6b1f">DeltaBpDecoder::readLong()  xN</text>

  <!-- packed input strip -->
  <g font-size="28" fill="#222">
    <rect filter="url(#sk)" x="70" y="140" width="90" height="60" rx="8" fill="#dae6f5" stroke="#6b8fbf" stroke-width="2"/>
    <rect filter="url(#sk)" x="160" y="140" width="90" height="60" rx="8" fill="#e8eff8" stroke="#6b8fbf" stroke-width="2"/>
    <rect filter="url(#sk)" x="250" y="140" width="90" height="60" rx="8" fill="#dae6f5" stroke="#6b8fbf" stroke-width="2"/>
    <rect filter="url(#sk)" x="340" y="140" width="90" height="60" rx="8" fill="#e8eff8" stroke="#6b8fbf" stroke-width="2"/>
    <rect filter="url(#sk)" x="430" y="140" width="60" height="60" rx="8" fill="#f5f8fc" stroke="#6b8fbf" stroke-width="2" stroke-dasharray="4 4"/>
    <text x="115" y="178" text-anchor="middle">d0</text>
    <text x="205" y="178" text-anchor="middle">d1</text>
    <text x="295" y="178" text-anchor="middle">d2</text>
    <text x="385" y="178" text-anchor="middle">d3</text>
    <text x="460" y="178" text-anchor="middle" fill="#999">...</text>
    <text x="520" y="178" fill="#444" font-size="24">packed deltas</text>
  </g>

  <rect filter="url(#sk)" x="45" y="250" width="640" height="70" rx="10" fill="#ffffff" stroke="#444" stroke-width="2"/>
  <text x="365" y="294" text-anchor="middle" font-size="28" fill="#000">copyBits: byte-by-byte extract (1 value)</text>

  <rect filter="url(#sk)" x="45" y="360" width="640" height="70" rx="10" fill="#ffffff" stroke="#444" stroke-width="2"/>
  <text x="365" y="404" text-anchor="middle" font-size="28" fill="#000">+ min_delta + running prefix sum</text>

  <rect filter="url(#sk)" x="45" y="470" width="640" height="70" rx="10" fill="#ffffff" stroke="#444" stroke-width="2"/>
  <text x="365" y="514" text-anchor="middle" font-size="28" fill="#000">write 1 value</text>

  <line x1="365" y1="200" x2="365" y2="250" stroke="#000" stroke-width="2.5" marker-end="url(#bk)"/>
  <line x1="365" y1="320" x2="365" y2="360" stroke="#000" stroke-width="2.5" marker-end="url(#bk)"/>
  <line x1="365" y1="430" x2="365" y2="470" stroke="#000" stroke-width="2.5" marker-end="url(#bk)"/>

  <rect filter="url(#sk)" x="45" y="585" width="640" height="70" rx="10" fill="#e0d5f0" stroke="#9678c4" stroke-width="2"/>
  <text x="365" y="629" text-anchor="middle" font-size="28" fill="#000">visitor.process(): once per row</text>
  <line x1="365" y1="540" x2="365" y2="585" stroke="#000" stroke-width="2.5" marker-end="url(#bk)"/>

  <text x="365" y="720" text-anchor="middle" font-size="28" fill="#444">N loads, N dispatches</text>

  <!-- ===================== RIGHT: batched SIMD ===================== -->
  <text x="1120" y="50" text-anchor="middle" font-size="28" fill="#000">After: batched SIMD per miniblock</text>

  <rect filter="url(#sk)" x="790" y="70" width="690" height="600" rx="18" fill="#d9ead3" stroke="#7caa5c" stroke-width="2.5" stroke-dasharray="8 6"/>
  <text x="825" y="115" font-size="28" fill="#3f6b29">decodeMiniBlockSimd&lt;bw&gt;  x(N/4)  <tspan font-size="20" fill="#5a8a42">(N/2 if bw>16)</tspan></text>

  <!-- packed input strip -->
  <g font-size="28">
    <rect filter="url(#sk)" x="840" y="140" width="440" height="60" rx="8" fill="#cfe4d6" stroke="#5f9670" stroke-width="2"/>
    <text x="1060" y="178" text-anchor="middle" fill="#000">1 load => d0 d1 d2 d3</text>
    <rect filter="url(#sk)" x="1282" y="140" width="60" height="60" rx="8" fill="#e9f3ec" stroke="#5f9670" stroke-width="2" stroke-dasharray="4 4"/>
    <text x="1312" y="178" text-anchor="middle" fill="#999">...</text>
    <text x="1370" y="178" fill="#444" font-size="24">packed</text>
  </g>

  <rect filter="url(#sk)" x="815" y="250" width="640" height="70" rx="10" fill="#ffffff" stroke="#444" stroke-width="2"/>
  <text x="1135" y="294" text-anchor="middle" font-size="28" fill="#000">shift + mask => 4 deltas / iteration</text>

  <rect filter="url(#sk)" x="815" y="360" width="640" height="70" rx="10" fill="#ffffff" stroke="#444" stroke-width="2"/>
  <text x="1135" y="404" text-anchor="middle" font-size="28" fill="#000">fused prefix sum (+cumulative)</text>

  <rect filter="url(#sk)" x="815" y="470" width="640" height="70" rx="10" fill="#ffffff" stroke="#444" stroke-width="2"/>
  <text x="1135" y="514" text-anchor="middle" font-size="28" fill="#000">write 4 values straight to output</text>

  <line x1="1135" y1="200" x2="1135" y2="250" stroke="#000" stroke-width="2.5" marker-end="url(#bk)"/>
  <line x1="1135" y1="320" x2="1135" y2="360" stroke="#000" stroke-width="2.5" marker-end="url(#bk)"/>
  <line x1="1135" y1="430" x2="1135" y2="470" stroke="#000" stroke-width="2.5" marker-end="url(#bk)"/>

  <rect filter="url(#sk)" x="815" y="585" width="640" height="70" rx="10" fill="#e0d5f0" stroke="#9678c4" stroke-width="2"/>
  <text x="1135" y="629" text-anchor="middle" font-size="28" fill="#000">visitor.processRun(): once per chunk</text>
  <line x1="1135" y1="540" x2="1135" y2="585" stroke="#000" stroke-width="2.5" marker-end="url(#bk)"/>

  <text x="1135" y="720" text-anchor="middle" font-size="28" fill="#444">1 load / 4 values, 1 dispatch / chunk</text>

  <!-- bottom shared output buffer -->
  <rect filter="url(#sk)" x="20" y="780" width="1460" height="140" rx="18" fill="#efefef" stroke="#999" stroke-width="2.5" stroke-dasharray="8 6"/>
  <text x="750" y="825" text-anchor="middle" font-size="28" fill="#444">output value buffer (decoded int column)</text>
  <g>
    <rect filter="url(#sk)" x="480" y="845" width="70" height="50" rx="6" fill="#f4cccc" stroke="#c47" stroke-width="1.5"/>
    <rect filter="url(#sk)" x="550" y="845" width="70" height="50" rx="6" fill="#d9ead3" stroke="#7caa5c" stroke-width="1.5"/>
    <rect filter="url(#sk)" x="620" y="845" width="70" height="50" rx="6" fill="#fff" stroke="#999" stroke-width="1.5"/>
    <rect filter="url(#sk)" x="690" y="845" width="70" height="50" rx="6" fill="#dae6f5" stroke="#6b8fbf" stroke-width="1.5"/>
    <rect filter="url(#sk)" x="760" y="845" width="70" height="50" rx="6" fill="#f4cccc" stroke="#c47" stroke-width="1.5"/>
    <rect filter="url(#sk)" x="830" y="845" width="70" height="50" rx="6" fill="#d9ead3" stroke="#7caa5c" stroke-width="1.5"/>
    <text x="935" y="878" font-size="24" fill="#444">decoded values</text>
  </g>
  <line x1="365" y1="740" x2="365" y2="780" stroke="#000" stroke-width="2.5" marker-end="url(#bk)"/>
  <line x1="1135" y1="740" x2="1135" y2="780" stroke="#000" stroke-width="2.5" marker-end="url(#bk)"/>
</svg>
