<svg xmlns="http://www.w3.org/2000/svg" width="1500" height="1000" viewBox="0 0 1500 1000">
  <defs>
    <style>

      text { font-family: 'Comic Sans MS', 'Segoe Print', cursive; fill: #000; stroke: #000; stroke-width: 0.4px; paint-order: stroke fill; }
    </style>
    <filter id="sk" x="-10%" y="-30%" width="120%" height="160%"><feTurbulence type="fractalNoise" baseFrequency="0.018" numOctaves="2" seed="3" result="n"/><feDisplacementMap in="SourceGraphic" in2="n" scale="2"/></filter>
    <marker id="bk2" markerWidth="8" markerHeight="8" refX="6" refY="4" orient="auto">
      <path d="M0,0 L7,4 L0,8 Z" fill="#000"/>
    </marker>
  </defs>

  <!-- ============ GROUP A: width 1-16 (blue dashed) ============ -->
  <rect filter="url(#sk)" x="20" y="20" width="1460" height="440" rx="18" fill="#dce7f5" stroke="#6b8fbf" stroke-width="2.5" stroke-dasharray="8 6"/>
  <text x="55" y="65" font-size="28" fill="#2c5092">bit_width 1-16: one 64-bit load yields 4 values</text>

  <!-- memory bytes -->
  <text x="55" y="110" font-size="28" fill="#444">memory (little-endian): 8 bytes loaded as uint64_t</text>
  <g font-size="28" fill="#222">
    <rect filter="url(#sk)" x="55"  y="130" width="165" height="60" rx="8" fill="#fff" stroke="#444" stroke-width="1.5"/>
    <rect filter="url(#sk)" x="220" y="130" width="165" height="60" rx="8" fill="#f3f5f8" stroke="#444" stroke-width="1.5"/>
    <rect filter="url(#sk)" x="385" y="130" width="165" height="60" rx="8" fill="#fff" stroke="#444" stroke-width="1.5"/>
    <rect filter="url(#sk)" x="550" y="130" width="165" height="60" rx="8" fill="#f3f5f8" stroke="#444" stroke-width="1.5"/>
    <rect filter="url(#sk)" x="715" y="130" width="165" height="60" rx="8" fill="#fff" stroke="#444" stroke-width="1.5"/>
    <rect filter="url(#sk)" x="880" y="130" width="165" height="60" rx="8" fill="#f3f5f8" stroke="#444" stroke-width="1.5"/>
    <rect filter="url(#sk)" x="1045" y="130" width="165" height="60" rx="8" fill="#fff" stroke="#444" stroke-width="1.5"/>
    <rect filter="url(#sk)" x="1210" y="130" width="165" height="60" rx="8" fill="#f3f5f8" stroke="#444" stroke-width="1.5"/>
    <text x="137" y="168" text-anchor="middle">byte0</text>
    <text x="302" y="168" text-anchor="middle">byte1</text>
    <text x="467" y="168" text-anchor="middle">byte2</text>
    <text x="632" y="168" text-anchor="middle">byte3</text>
    <text x="797" y="168" text-anchor="middle">byte4</text>
    <text x="962" y="168" text-anchor="middle">byte5</text>
    <text x="1127" y="168" text-anchor="middle">byte6</text>
    <text x="1292" y="168" text-anchor="middle">byte7</text>
  </g>

  <!-- arrow: reinterpret -->
  <line x1="750" y1="190" x2="750" y2="235" stroke="#000" stroke-width="2.5" marker-end="url(#bk2)"/>
  <text x="775" y="228" font-size="28" fill="#444">reinterpret as packed delta fields (width w)</text>

  <!-- packed delta fields -->
  <g fill="#222">
    <rect filter="url(#sk)" x="55"  y="248" width="330" height="70" rx="10" fill="#dae6f5" stroke="#6b8fbf" stroke-width="2"/>
    <rect filter="url(#sk)" x="385" y="248" width="330" height="70" rx="10" fill="#c6d8ef" stroke="#6b8fbf" stroke-width="2"/>
    <rect filter="url(#sk)" x="715" y="248" width="330" height="70" rx="10" fill="#dae6f5" stroke="#6b8fbf" stroke-width="2"/>
    <rect filter="url(#sk)" x="1045" y="248" width="330" height="70" rx="10" fill="#c6d8ef" stroke="#6b8fbf" stroke-width="2"/>
    <rect filter="url(#sk)" x="1375" y="248" width="50"  height="70" rx="10" fill="#eef4fb" stroke="#6b8fbf" stroke-width="2" stroke-dasharray="4 4"/>
    <text x="220" y="292" text-anchor="middle" font-size="28">delta 0</text>
    <text x="550" y="292" text-anchor="middle" font-size="28">delta 1</text>
    <text x="880" y="292" text-anchor="middle" font-size="28">delta 2</text>
    <text x="1210" y="292" text-anchor="middle" font-size="28">delta 3</text>
  </g>

  <!-- extract node -->
  <line x1="750" y1="318" x2="750" y2="360" stroke="#000" stroke-width="2.5" marker-end="url(#bk2)"/>
  <rect filter="url(#sk)" x="150" y="365" width="1200" height="70" rx="10" fill="#fff" stroke="#444" stroke-width="2"/>
  <text x="750" y="409" text-anchor="middle" font-size="28" fill="#000">extract: (word >> (k * w)) &amp; mask,  4*w &lt;= 64, no further loads</text>

  <!-- ============ GROUP B: width 17-32 (purple dashed) ============ -->
  <rect filter="url(#sk)" x="20" y="510" width="1460" height="470" rx="18" fill="#e6dcf2" stroke="#9678c4" stroke-width="2.5" stroke-dasharray="8 6"/>
  <text x="55" y="555" font-size="28" fill="#5b3f82">bit_width 17-32: value straddles 64-bit edge, 128-bit window</text>

  <!-- two load nodes -->
  <rect filter="url(#sk)" x="70"  y="585" width="600" height="70" rx="10" fill="#fff" stroke="#444" stroke-width="2"/>
  <text x="370" y="629" text-anchor="middle" font-size="28" fill="#000">load A: uint64 at p + byteOff</text>
  <rect filter="url(#sk)" x="830" y="585" width="600" height="70" rx="10" fill="#fff" stroke="#444" stroke-width="2"/>
  <text x="1130" y="629" text-anchor="middle" font-size="28" fill="#000">load B: uint64 at p + byteOff + 8</text>

  <!-- combine node (purple) -->
  <line x1="370" y1="655" x2="620" y2="710" stroke="#000" stroke-width="2.5" marker-end="url(#bk2)"/>
  <line x1="1130" y1="655" x2="880" y2="710" stroke="#000" stroke-width="2.5" marker-end="url(#bk2)"/>
  <rect filter="url(#sk)" x="300" y="715" width="900" height="70" rx="10" fill="#e0d5f0" stroke="#9678c4" stroke-width="2"/>
  <text x="750" y="759" text-anchor="middle" font-size="28" fill="#000">__uint128_t window = (B &lt;&lt; 64) | A</text>

  <!-- shift node -->
  <line x1="750" y1="785" x2="750" y2="825" stroke="#000" stroke-width="2.5" marker-end="url(#bk2)"/>
  <rect filter="url(#sk)" x="220" y="830" width="1060" height="110" rx="10" fill="#fff" stroke="#444" stroke-width="2"/>
  <text x="750" y="876" text-anchor="middle" font-size="28" fill="#000">word = window >> bitInByte</text>
  <text x="750" y="920" text-anchor="middle" font-size="28" fill="#444">=> 2 values per iteration (SHRD on x86_64)</text>
</svg>
